<?xml version="1.0" encoding="UTF-8" standalone="no"?>
<!DOCTYPE svg PUBLIC "-//W3C//DTD SVG 20010904//EN"
              "http://www.w3.org/TR/2001/REC-SVG-20010904/DTD/svg10.dtd">

<svg xmlns="http://www.w3.org/2000/svg"
     width="5.48611in" height="5.48611in"
     viewBox="0 0 395 395">
  <path id="LeftLeft"
        fill="#168aad" stroke="#0c63e7" stroke-width="0"
        d="M 96.00,30.00
           C 98.54,25.90 100.09,26.81 103.91,24.74
             107.88,22.60 107.21,21.61 114.00,18.82
             129.94,12.27 137.98,9.03 155.04,5.75
             163.03,4.22 164.52,1.49 173.00,4.00
             173.00,4.00 172.13,29.00 172.13,29.00
             172.13,29.00 172.94,36.00 172.94,36.00
             172.94,36.00 172.94,45.00 172.94,45.00
             172.94,45.00 143.00,53.23 143.00,53.23
             135.79,55.77 117.11,64.61 111.17,68.86
             111.17,68.86 99.00,78.74 99.00,78.74
             99.00,78.74 90.01,86.09 90.01,86.09
             85.75,90.14 84.25,92.74 80.72,97.00
             61.45,120.17 48.06,149.78 45.04,180.00
             45.04,180.00 45.04,188.00 45.04,188.00
             44.57,192.95 43.79,194.09 44.04,200.00
             44.95,221.69 50.23,240.46 59.45,260.00
             63.19,267.93 69.03,279.30 74.47,286.00
             90.30,305.53 108.48,321.41 131.00,332.75
             131.00,332.75 159.00,345.58 159.00,345.58
             162.05,346.72 169.32,348.35 171.15,350.51
             174.01,353.90 172.50,359.10 172.17,363.00
             171.53,370.66 175.27,376.30 171.00,388.00
             171.00,388.00 152.00,384.76 152.00,384.76
             133.39,380.39 108.66,370.28 92.83,359.67
             86.86,355.67 76.70,350.25 73.00,344.00
             73.00,344.00 71.00,345.00 71.00,345.00
             71.00,345.00 47.66,320.83 47.66,320.83
             41.35,313.49 25.96,288.96 21.52,280.00
             9.72,256.22 1.78,223.57 2.41,197.00
             2.41,197.00 2.41,188.00 2.41,188.00
             2.41,188.00 4.71,165.00 4.71,165.00
             4.71,165.00 5.82,156.00 5.82,156.00
             5.82,156.00 9.14,145.00 9.14,145.00
             9.14,145.00 12.94,131.00 12.94,131.00
             15.90,122.23 23.11,107.07 27.72,99.00
             37.65,81.62 51.03,64.24 66.08,51.01
             71.08,46.61 76.18,40.13 83.00,39.00
             85.48,34.56 90.97,30.70 96.00,30.00 Z
           M 100.00,27.00
           C 100.00,27.00 99.00,27.00 99.00,27.00
             99.00,27.00 100.00,28.00 100.00,28.00
             100.00,28.00 100.00,27.00 100.00,27.00 Z" />
  <path id="Left"
        fill="#76c893" stroke="#137547" stroke-width="0"
        d="M 167.00,84.00
           C 167.00,84.00 172.00,85.00 172.00,85.00
             172.00,85.00 173.00,129.00 173.00,129.00
             173.00,129.00 172.09,142.00 172.09,142.00
             172.09,142.00 173.00,150.00 173.00,150.00
             173.00,150.00 150.00,151.00 150.00,151.00
             150.00,151.00 136.00,152.00 136.00,152.00
             136.00,152.00 115.04,152.00 115.04,152.00
             115.04,152.00 115.04,186.00 115.04,186.00
             114.97,188.28 114.13,193.92 115.04,195.57
             116.71,198.27 121.28,197.99 124.00,198.00
             124.00,198.00 172.00,199.00 172.00,199.00
             173.59,207.88 173.00,217.01 173.00,226.00
             173.00,226.00 173.00,268.00 173.00,268.00
             173.00,277.62 173.87,304.31 172.00,312.00
             159.57,307.85 144.26,300.36 134.09,292.10
             134.09,292.10 124.58,283.28 124.58,283.28
             124.58,283.28 112.30,272.91 112.30,272.91
             107.49,267.71 104.17,261.99 100.46,256.04
             100.46,256.04 95.81,248.91 95.81,248.91
             88.15,234.97 83.19,216.95 83.00,201.00
             82.71,176.12 85.08,160.99 97.27,139.00
             99.75,134.53 105.03,123.29 110.00,122.00
             111.68,116.31 116.60,112.66 121.01,108.92
             130.15,101.18 140.80,93.84 152.00,89.46
             156.98,87.51 162.77,87.39 167.00,84.00 Z
           M 112.00,119.00
           C 112.00,119.00 111.00,119.00 111.00,119.00
             111.00,119.00 112.00,120.00 112.00,120.00
             112.00,120.00 112.00,119.00 112.00,119.00 Z" />
  <path id="Right"
        fill="#168aad" stroke="#0c63e7" stroke-width="0"
        d="M 220.00,82.00
           C 229.56,82.86 239.44,88.10 248.00,92.22
             258.94,97.48 267.14,103.71 276.00,111.98
             276.00,111.98 283.71,119.09 283.71,119.09
             302.36,138.91 310.41,166.48 311.91,193.00
             312.15,197.29 311.35,199.13 311.09,203.00
             310.14,216.83 308.98,224.81 303.94,238.00
             293.08,266.40 267.87,290.19 240.00,301.77
             233.47,304.49 226.80,306.19 220.00,308.00
             220.00,308.00 220.00,198.00 220.00,198.00
             220.00,198.00 235.00,198.00 235.00,198.00
             235.00,198.00 251.00,197.00 251.00,197.00
             251.00,197.00 278.00,197.00 278.00,197.00
             278.00,187.14 277.11,158.78 279.00,151.00
             279.00,151.00 220.00,151.00 220.00,151.00
             220.00,151.00 220.00,82.00 220.00,82.00 Z" />
  <path id="RightRight"
        fill="#76c893" stroke="#137547" stroke-width="0"
        d="M 220.00,2.00
           C 237.37,2.38 262.20,10.45 278.00,17.69
             302.67,28.99 324.63,44.78 342.83,65.00
             363.41,87.87 380.61,120.91 387.34,151.00
             389.50,160.67 390.41,170.17 391.09,180.00
             391.09,180.00 392.00,190.00 392.00,190.00
             392.26,212.34 389.43,234.69 382.48,256.00
             365.42,308.33 325.31,351.90 275.00,374.14
             255.80,382.63 240.27,385.37 220.00,389.00
             220.00,389.00 220.00,354.00 220.00,354.00
             220.00,351.87 219.77,348.27 221.02,346.51
             222.57,344.33 227.46,343.51 230.00,342.87
             230.00,342.87 252.00,336.31 252.00,336.31
             279.11,326.46 303.03,306.08 319.91,283.00
             328.42,271.37 335.10,257.56 339.86,244.00
             358.09,192.03 345.78,132.20 307.58,92.17
             284.28,67.76 253.08,50.65 220.00,44.00
             220.00,44.00 220.00,2.00 220.00,2.00 Z" />
</svg>
